<svg width="35" height="33" viewBox="0 0 35 33" fill="none" xmlns="http://www.w3.org/2000/svg">
<g filter="url(#filter0_d_190_1326)">
<path d="M25.9521 23.2662H25.8397C25.2306 23.2662 24.7188 22.7666 24.6746 22.1289C24.6302 21.4602 25.1187 20.8781 25.7637 20.8341C25.7891 20.8324 25.8156 20.8315 25.8417 20.8315C26.4587 20.8315 26.9755 21.3214 27.0213 21.9482C27.0331 22.1967 26.9926 22.5509 26.7371 22.8434L26.7312 22.8502L26.7254 22.8571C26.5287 23.0907 26.2619 23.2316 25.9521 23.2662ZM12.22 23.2599C11.5695 23.2599 11.0402 22.7169 11.0402 22.0496C11.0402 21.3827 11.5695 20.8401 12.22 20.8401C12.8706 20.8401 13.3998 21.3827 13.3998 22.0496C13.3998 22.7169 12.8706 23.2599 12.22 23.2599Z" fill="white"/>
<path d="M25.8765 22.2662C25.9215 22.2549 25.9428 22.2339 25.9605 22.2129C25.9683 22.2037 25.9761 22.1946 25.9839 22.1855C26.0204 22.1438 26.0237 22.0553 26.0229 22.0105C26.0097 21.9044 25.9189 21.8315 25.8417 21.8315C25.838 21.8315 25.8341 21.8317 25.8317 21.8318C25.7536 21.8372 25.6658 21.9409 25.6724 22.0625C25.6818 22.1793 25.7679 22.2662 25.8397 22.2662H25.8765ZM12.22 22.2599C12.3192 22.2599 12.3998 22.1655 12.3998 22.0496C12.3998 21.9341 12.3192 21.8401 12.22 21.8401C12.1209 21.8401 12.0402 21.9341 12.0402 22.0496C12.0402 22.1655 12.1209 22.2599 12.22 22.2599ZM25.9999 24.2662C25.9522 24.2662 25.8883 24.2662 25.8397 24.2662C24.7021 24.2662 23.7571 23.3545 23.677 22.198C23.5969 20.9929 24.4942 19.9183 25.6957 19.8364C25.7446 19.8331 25.7933 19.8315 25.8417 19.8315C26.9804 19.8315 27.9418 20.7324 28.0195 21.8884C28.051 22.4915 27.8746 23.0612 27.4903 23.5012C27.106 23.9575 26.5768 24.2177 25.9999 24.2662ZM12.22 24.2599C11.0158 24.2599 10.0402 23.2709 10.0402 22.0496C10.0402 20.8291 11.0158 19.8401 12.22 19.8401C13.4242 19.8401 14.3998 20.8291 14.3998 22.0496C14.3998 23.2709 13.4242 24.2599 12.22 24.2599ZM25.1989 17.3938H13.1335C12.7006 17.3938 12.3163 17.1005 12.2038 16.6775L8.27802 2.24768H5.52222C4.9939 2.24768 4.56104 1.80859 4.56104 1.27039C4.56104 0.733032 4.9939 0.292969 5.52222 0.292969H8.99982C9.43182 0.292969 9.8161 0.586304 9.92859 1.01025L13.8544 15.4391H24.5581L28.1149 7.13379H16.2583C15.7291 7.13379 15.2962 6.69373 15.2962 6.15649C15.2962 5.61914 15.7291 5.17908 16.2583 5.17908H29.5891C29.9095 5.17908 30.2146 5.34192 30.3901 5.61914C30.5665 5.89539 30.5989 6.23743 30.4702 6.547L26.08 16.807C25.9198 17.1653 25.5832 17.3938 25.1989 17.3938Z" fill="white"/>
</g>
<defs>
<filter id="filter0_d_190_1326" x="0.561035" y="0.292969" width="33.9874" height="31.9733" filterUnits="userSpaceOnUse" color-interpolation-filters="sRGB">
<feFlood flood-opacity="0" result="BackgroundImageFix"/>
<feColorMatrix in="SourceAlpha" type="matrix" values="0 0 0 0 0 0 0 0 0 0 0 0 0 0 0 0 0 0 127 0" result="hardAlpha"/>
<feOffset dy="4"/>
<feGaussianBlur stdDeviation="2"/>
<feComposite in2="hardAlpha" operator="out"/>
<feColorMatrix type="matrix" values="0 0 0 0 0 0 0 0 0 0 0 0 0 0 0 0 0 0 0.25 0"/>
<feBlend mode="normal" in2="BackgroundImageFix" result="effect1_dropShadow_190_1326"/>
<feBlend mode="normal" in="SourceGraphic" in2="effect1_dropShadow_190_1326" result="shape"/>
</filter>
</defs>
</svg>
